<svg width="409" height="88" viewBox="0 0 409 88" fill="none" xmlns="http://www.w3.org/2000/svg">
<g id="coder" filter="url(#filter0_d)">
<path id="Subtract" fill-rule="evenodd" clip-rule="evenodd" d="M4.36475 36.7396C4.36475 18.5929 17.8801 3.5804 35.4618 1.0837V21.5437C28.95 23.6887 24.3647 29.7636 24.3647 36.7396C24.3647 43.7156 28.95 49.7904 35.4618 51.9355V72.3955C17.8801 69.8988 4.36475 54.8863 4.36475 36.7396ZM55.2484 43.815C53.3531 47.5972 49.9825 50.5662 45.8274 51.9352V72.3954C61.0623 70.2315 73.2439 58.67 76.2239 43.815H55.2484ZM55.5528 30.3072C53.7282 26.2196 50.2152 22.9897 45.8274 21.544V1.08384C61.2815 3.27881 73.5937 15.1438 76.3468 30.3072H55.5528Z" fill="black"/>
<path id="Subtract_2" fill-rule="evenodd" clip-rule="evenodd" d="M122.921 0.440453C105.339 2.93712 91.8237 17.9496 91.8237 36.0964C91.8237 54.2431 105.339 69.2556 122.921 71.7523V51.2923C116.409 49.1473 111.824 43.0724 111.824 36.0964C111.824 29.1204 116.409 23.0455 122.921 20.9004V0.440453ZM133.286 51.292C139.798 49.1466 144.383 43.072 144.383 36.0964C144.383 29.1207 139.798 23.0461 133.286 20.9008V0.440607C150.868 2.93773 164.383 17.95 164.383 36.0964C164.383 54.2427 150.868 69.255 133.286 71.7521V51.292Z" fill="black"/>
<path id="Union" fill-rule="evenodd" clip-rule="evenodd" d="M287.391 0.440552H267.391V12.7456H321.162V0.440552H301.162H287.391ZM267.391 71.1953V58.89H321.162V71.1953H301.162H287.391H267.391ZM321.162 29.3576H267.391V41.6628H321.162V29.3576Z" fill="black"/>
<path id="Union_2" fill-rule="evenodd" clip-rule="evenodd" d="M366.511 56.3837C366.911 56.3952 367.314 56.401 367.718 56.401C370.27 56.401 372.757 56.1692 375.147 55.7299L394.969 79.7975L405 71.6539L387.917 50.9126C396.159 45.8691 401.495 37.816 401.495 28.7424C401.495 13.4669 386.373 1.08368 367.718 1.08368C367.314 1.08368 366.911 1.08949 366.511 1.10101V21.1167C366.906 21.0949 367.308 21.0837 367.718 21.0837C372.702 21.0837 376.601 22.7511 378.931 24.6588C381.22 26.5327 381.495 28.0799 381.495 28.7424C381.495 29.4048 381.22 30.952 378.931 32.8259C376.601 34.7337 372.702 36.401 367.718 36.401C367.308 36.401 366.906 36.3898 366.511 36.368V56.3837ZM356.145 71.8385V1.08369H343.188V71.8385H356.145Z" fill="black"/>
<path id="Union_3" fill-rule="evenodd" clip-rule="evenodd" d="M204.929 72.4817C204.368 72.4817 203.81 72.4742 203.253 72.4592V52.4486C203.806 52.4705 204.364 52.4817 204.929 52.4817C213.864 52.4817 221.219 49.679 225.922 46.0682C230.604 42.4733 231.842 38.9021 231.842 36.4611C231.842 34.0202 230.604 30.4489 225.922 26.854C221.219 23.2432 213.864 20.4405 204.929 20.4405C204.364 20.4405 203.806 20.4517 203.253 20.4737V0.463081C203.81 0.448083 204.368 0.440521 204.929 0.440521C230.839 0.440521 251.842 16.5675 251.842 36.4611C251.842 56.3548 230.839 72.4817 204.929 72.4817ZM192.888 72.4818V0.440552H179.931V72.4818H192.888Z" fill="black"/>
</g>
<defs>
<filter id="filter0_d" x="0.364746" y="0.440453" width="408.635" height="87.3571" filterUnits="userSpaceOnUse" color-interpolation-filters="sRGB">
<feFlood flood-opacity="0" result="BackgroundImageFix"/>
<feColorMatrix in="SourceAlpha" type="matrix" values="0 0 0 0 0 0 0 0 0 0 0 0 0 0 0 0 0 0 127 0"/>
<feOffset dy="4"/>
<feGaussianBlur stdDeviation="2"/>
<feColorMatrix type="matrix" values="0 0 0 0 0 0 0 0 0 0 0 0 0 0 0 0 0 0 0.25 0"/>
<feBlend mode="normal" in2="BackgroundImageFix" result="effect1_dropShadow"/>
<feBlend mode="normal" in="SourceGraphic" in2="effect1_dropShadow" result="shape"/>
</filter>
</defs>
</svg>
