<svg width="219" height="371" viewBox="0 0 219 371" fill="none" xmlns="http://www.w3.org/2000/svg">
<g id="ikona NOWA">
<path id="Union" fill-rule="evenodd" clip-rule="evenodd" d="M95.2606 281.088C92.2399 281.097 90.0016 281.103 88.343 280.964C87.8329 281.048 87.3093 281.092 86.7753 281.092H77.2423L67.9536 279.8L58.665 278.508L52.0565 276.621C44.4303 274.442 37.0904 271.364 30.1914 267.452L20.5327 261.974L29.1701 264.027C36.7485 265.829 44.5115 266.739 52.3011 266.739H53.7762L61.5983 265.648L61.996 265.593C66.915 264.907 71.6959 263.453 76.1641 261.284L78.9039 259.954C81.5672 258.662 84.1026 257.121 86.4762 255.351C88.5606 253.798 90.7701 252.419 93.0823 251.231L94.4086 250.549C96.393 248.977 98.5294 248.022 100.708 248.022C104.686 248.022 108.133 249.658 110.73 252.255C113.327 249.658 116.774 248.022 120.752 248.022C122.931 248.022 125.068 248.977 127.053 250.55L128.377 251.231C130.69 252.419 132.899 253.798 134.984 255.351C137.357 257.121 139.892 258.662 142.556 259.954L145.296 261.284C149.764 263.453 154.545 264.907 159.464 265.593L159.861 265.648L167.683 266.739H169.159C176.948 266.739 184.711 265.829 192.29 264.027L200.927 261.974L191.268 267.452C184.369 271.364 177.029 274.442 169.403 276.621L162.795 278.508L153.506 279.8L144.217 281.092H134.684C134.151 281.092 133.627 281.048 133.117 280.964C131.458 281.103 129.22 281.097 126.2 281.088C125.415 281.086 124.578 281.084 123.685 281.084C118.977 281.084 114.194 279.082 110.73 275.889C107.266 279.082 102.483 281.084 97.7749 281.084C96.8817 281.084 96.0448 281.086 95.2606 281.088Z" fill="black"/>
<path id="Union_2" fill-rule="evenodd" clip-rule="evenodd" d="M25.4219 277.036C25.4219 295.87 60.9405 330.774 78.2204 330.774C78.3614 330.774 78.5015 330.774 78.6408 330.774C79.3502 330.774 80.039 330.774 80.7075 330.773C81.4241 334.669 82.8334 338.163 84.7353 340.968H84.6042L88.9083 346.425L91.4226 349.613C92.6128 351.122 93.6517 352.744 94.5242 354.457C95.9223 357.201 96.8788 360.149 97.3586 363.191L97.6122 364.799L102.098 356.581L110.976 371L119.335 357.423L123.361 364.799L123.615 363.191C124.095 360.149 125.051 357.201 126.449 354.457C127.322 352.744 128.361 351.122 129.551 349.613L132.065 346.425L136.369 340.968H136.239C138.141 338.163 139.551 334.668 140.267 330.77C141.235 330.774 142.248 330.774 143.307 330.774H143.31L143.73 330.774C161.01 330.774 196.529 295.87 196.529 277.036C196.529 268.295 192.276 274.476 185.99 283.611C178.732 294.159 168.764 308.646 159.504 308.646C153.698 308.646 147.474 306.909 141.768 305.317C137.093 304.012 132.766 302.805 129.302 302.729C127.833 302.099 126.277 301.761 124.665 301.761C124.034 301.761 123.412 301.812 122.8 301.913C122.339 301.813 121.86 301.761 121.369 301.761H110.976H99.6047C99.1137 301.761 98.635 301.813 98.1739 301.913C97.5621 301.812 96.9399 301.761 96.3092 301.761C94.6474 301.761 93.0444 302.12 91.5359 302.789C88.2771 303.058 84.3692 304.148 80.1821 305.317C74.4765 306.909 68.2526 308.646 62.4467 308.646C53.1863 308.646 43.218 294.159 35.9601 283.611C29.6746 274.476 25.4219 268.295 25.4219 277.036Z" fill="black"/>
<path id="Union_3" fill-rule="evenodd" clip-rule="evenodd" d="M139.813 30.442C139.53 13.5784 126.508 0 110.485 0C94.2855 0 81.1529 13.8804 81.1529 31.0028C81.1529 31.1483 81.1538 31.2936 81.1557 31.4386C38.1874 45.7562 5.48908 92.213 0 149.324L6.10365 159.332L37.8859 102.017L44.1858 96.7518C62.1634 111.003 87.4845 119.878 115.538 119.878C140.541 119.878 163.374 112.828 180.771 101.205L185.98 106.31L213.409 166.084L219 158.329C216.848 110.356 195.584 68.8707 164.716 45.9278C167.928 43.4847 170.956 40.7941 173.77 37.8795L180.161 31.2598L173.687 33.747C170.743 34.8779 167.67 35.6 164.553 35.8932C161.318 36.1974 158.069 36.037 154.9 35.4169L150.196 34.4961C146.593 33.5088 143.114 32.149 139.813 30.442Z" fill="black"/>
</g>
</svg>
