<svg width="254" height="88" viewBox="0 0 254 88" fill="none" xmlns="http://www.w3.org/2000/svg">
<g id="paul">
<path id="P" fill-rule="evenodd" clip-rule="evenodd" d="M0.256813 56.1913C0.171159 56.1913 0.0855742 56.1911 6.10352e-05 56.1906V46.1905C0.0855118 46.191 0.171096 46.1913 0.256813 46.1913C8.4446 46.1913 18.7472 43.6262 26.8279 39.4478C30.8385 37.3739 33.8239 35.146 35.6804 33.0928C37.5361 31.0405 37.7303 29.7953 37.7303 29.3528C37.7303 28.9103 37.5361 27.6652 35.6804 25.6128C33.8239 23.5596 30.8385 21.3317 26.8279 19.2579C18.7472 15.0794 8.4446 12.5143 0.256813 12.5143C0.171096 12.5143 0.0855118 12.5146 6.10352e-05 12.5152V2.51501C0.0855742 2.51456 0.171159 2.51434 0.256813 2.51434C20.0635 2.51434 47.7303 14.5303 47.7303 29.3528C47.7303 44.1753 20.0635 56.1913 0.256813 56.1913ZM0 56.1914V88H10V56.1914H0Z" fill="#E7E7E7"/>
<path id="Subtract" fill-rule="evenodd" clip-rule="evenodd" d="M74.9667 12.9116L80.3898 0L85.813 12.9116L112.359 76.1141L116.559 86.1141H105.713H55.0665H44.2202L47.8284 77.5236H60.0348V76.1141H101.513L80.3898 25.8233L60.0348 74.2853V69.1427H51.3486L74.9667 12.9116Z" fill="#E7E7E7"/>
<path id="Subtract_2" fill-rule="evenodd" clip-rule="evenodd" d="M176.904 1.30916C176.904 1.15201 176.903 0.994987 176.903 0.838097H166.903C166.903 0.994937 166.904 1.15196 166.904 1.30916C166.904 18.3826 163.755 39.0485 158.718 55.2335C156.186 63.3705 153.35 69.8033 150.568 73.9821C150.426 74.1958 150.288 74.3983 150.153 74.5903H150.916V87.2033C165.552 80.7068 176.904 34.8389 176.904 1.30916ZM143.897 87.1963C129.268 80.6739 117.925 34.8269 117.925 1.30916C117.925 1.15201 117.925 0.994987 117.926 0.838097H127.926C127.925 0.994937 127.925 1.15196 127.925 1.30916C127.925 18.3826 131.073 39.0485 136.11 55.2335C138.643 63.3705 141.479 69.8033 144.26 73.9821C144.402 74.1958 144.541 74.3983 144.675 74.5903H143.897V87.1963Z" fill="#E7E7E7"/>
<path id="Subtract_3" fill-rule="evenodd" clip-rule="evenodd" d="M197.244 2.51434H204.263V64.5331V74.5904V82.9714H197.244V72.9714V12.5143V2.51434ZM211.283 82.9714H243.398H253.398V74.5904H211.283V82.9714Z" fill="#E7E7E7"/>
</g>
</svg>
